<svg width="48.000000" height="48.000000" viewBox="0 0 48 48" fill="none" xmlns="http://www.w3.org/2000/svg" xmlns:xlink="http://www.w3.org/1999/xlink">
	<desc>
			Created with Pixso.
	</desc>
	<defs>
		<clipPath id="clip64_171">
			<rect id="medicinecosmeticsbottletreatment_109776 1" rx="0.000000" width="47.000000" height="47.000000" transform="translate(0.500000 0.500000)" fill="white" fill-opacity="0"/>
		</clipPath>
	</defs>
	<rect id="medicinecosmeticsbottletreatment_109776 1" rx="0.000000" width="47.000000" height="47.000000" transform="translate(0.500000 0.500000)" fill="#FFFFFF" fill-opacity="0"/>
	<g clip-path="url(#clip64_171)">
		<path id="Vector" d="M13.1 18.07L-0.19 18.07C-0.6 18.07 -0.93 18.38 -0.93 18.78L-0.93 23.03C-0.93 23.42 -0.6 23.74 -0.19 23.74L0.55 23.74L0.55 40.03C0.55 40.42 0.88 40.74 1.29 40.74L11.63 40.74C12.03 40.74 12.36 40.42 12.36 40.03L12.36 37.2L12.36 26.57L12.36 23.74L13.1 23.74C13.51 23.74 13.84 23.42 13.84 23.03L13.84 18.78C13.84 18.38 13.51 18.07 13.1 18.07ZM4.98 31.53L4.98 30.11L9.41 30.11L9.41 28.7L4.98 28.7L4.98 27.28L10.89 27.28L10.89 36.49L4.98 36.49L4.98 32.95L6.46 32.95L6.46 31.53L4.98 31.53ZM10.89 25.86L4.24 25.86C3.83 25.86 3.5 26.18 3.5 26.57L3.5 37.2C3.5 37.59 3.83 37.91 4.24 37.91L10.89 37.91L10.89 39.32L2.03 39.32L2.03 23.74L10.89 23.74L10.89 25.86ZM12.36 22.32L11.63 22.32L1.29 22.32L0.55 22.32L0.55 19.48L12.36 19.48L12.36 22.32Z" fill="#2B7FFF" fill-opacity="1.000000" fill-rule="nonzero"/>
		<path id="Vector" d="M22.89 18.2L22.89 13.02C22.89 12.62 22.56 12.29 22.15 12.29L21.41 12.29L21.41 8.64L22.89 8.64L22.89 7.19L14.76 7.19L14.76 8.64L19.93 8.64L19.93 12.29L19.19 12.29C18.79 12.29 18.46 12.62 18.46 13.02L18.46 18.2C16.77 18.54 15.5 20.01 15.5 21.77L15.5 23.23L15.5 37.09L15.5 40.01C15.5 40.41 15.83 40.74 16.24 40.74L25.1 40.74C25.51 40.74 25.84 40.41 25.84 40.01L25.84 37.09L25.84 23.23L25.84 21.77C25.84 20.01 24.57 18.54 22.89 18.2ZM19.93 13.75L21.41 13.75L21.41 18.13L19.93 18.13L19.93 13.75ZM19.19 19.59L22.15 19.59C23.37 19.59 24.36 20.57 24.36 21.77L24.36 22.5L16.98 22.5L16.98 21.77C16.98 20.57 17.97 19.59 19.19 19.59ZM24.36 36.36L16.98 36.36L16.98 34.9L19.93 34.9L19.93 33.45L16.98 33.45L16.98 23.96L24.36 23.96L24.36 36.36ZM16.98 39.28L16.98 37.82L24.36 37.82L24.36 39.28L16.98 39.28Z" fill="#2B7FFF" fill-opacity="1.000000" fill-rule="nonzero"/>
		<path id="Vector" d="M41.76 17.16L29.3 17.16C28.92 17.16 28.61 17.48 28.61 17.88L28.61 40.03C28.61 40.42 28.92 40.74 29.3 40.74L41.76 40.74C42.15 40.74 42.46 40.42 42.46 40.03L42.46 17.88C42.46 17.48 42.15 17.16 41.76 17.16ZM41.07 39.31L30 39.31L30 18.59L41.07 18.59L41.07 39.31Z" fill="#2B7FFF" fill-opacity="1.000000" fill-rule="nonzero"/>
		<path id="Vector" d="M8.3 31.67L10.15 31.67L10.15 32.58L8.3 32.58L8.3 31.67Z" fill="#2B7FFF" fill-opacity="1.000000" fill-rule="evenodd"/>
		<path id="Vector" d="M21.23 33.48L23.07 33.48L23.07 35.3L21.23 35.3L21.23 33.48Z" fill="#2B7FFF" fill-opacity="1.000000" fill-rule="evenodd"/>
		<path id="Vector" d="M20.76 31.67C22.55 31.67 24 30.25 24 28.5C24 26.75 22.55 25.32 20.76 25.32C18.98 25.32 17.53 26.75 17.53 28.5C17.53 30.25 18.98 31.67 20.76 31.67ZM20.76 26.91C21.66 26.91 22.38 27.62 22.38 28.5C22.38 29.37 21.66 30.08 20.76 30.08C19.87 30.08 19.15 29.37 19.15 28.5C19.15 27.62 19.87 26.91 20.76 26.91Z" fill="#2B7FFF" fill-opacity="1.000000" fill-rule="nonzero"/>
		<path id="Vector" d="M33.8 24.42L37.26 24.42C38.6 24.42 39.69 23.4 39.69 22.15C39.69 20.9 38.6 19.88 37.26 19.88L33.8 19.88C32.47 19.88 31.38 20.9 31.38 22.15C31.38 23.4 32.47 24.42 33.8 24.42ZM38.3 22.15C38.3 22.68 37.84 23.12 37.26 23.12L36.23 23.12L36.23 21.18L37.26 21.18C37.84 21.18 38.3 21.61 38.3 22.15ZM33.8 21.18L34.84 21.18L34.84 23.12L33.8 23.12C33.23 23.12 32.76 22.68 32.76 22.15C32.76 21.61 33.23 21.18 33.8 21.18Z" fill="#2B7FFF" fill-opacity="1.000000" fill-rule="nonzero"/>
		<path id="Vector" d="M33.8 31.67L37.26 31.67C38.6 31.67 39.69 30.45 39.69 28.95C39.69 27.45 38.6 26.23 37.26 26.23L33.8 26.23C32.47 26.23 31.38 27.45 31.38 28.95C31.38 30.45 32.47 31.67 33.8 31.67ZM38.3 28.95C38.3 29.59 37.84 30.12 37.26 30.12L36.23 30.12L36.23 27.78L37.26 27.78C37.84 27.78 38.3 28.31 38.3 28.95ZM33.8 27.78L34.84 27.78L34.84 30.12L33.8 30.12C33.23 30.12 32.76 29.59 32.76 28.95C32.76 28.31 33.23 27.78 33.8 27.78Z" fill="#2B7FFF" fill-opacity="1.000000" fill-rule="nonzero"/>
		<path id="Vector" d="M33.8 38.02L37.26 38.02C38.6 38.02 39.69 36.8 39.69 35.3C39.69 33.8 38.6 32.58 37.26 32.58L33.8 32.58C32.47 32.58 31.38 33.8 31.38 35.3C31.38 36.8 32.47 38.02 33.8 38.02ZM38.3 35.3C38.3 35.94 37.84 36.46 37.26 36.46L36.23 36.46L36.23 34.13L37.26 34.13C37.84 34.13 38.3 34.66 38.3 35.3ZM33.8 34.13L34.84 34.13L34.84 36.46L33.8 36.46C33.23 36.46 32.76 35.94 32.76 35.3C32.76 34.66 33.23 34.13 33.8 34.13Z" fill="#2B7FFF" fill-opacity="1.000000" fill-rule="nonzero"/>
	</g>
</svg>
